<svg width="65" height="23" xmlns="http://www.w3.org/2000/svg">
    <path d="M39.5 6c.827 0 1.5.673 1.5 1.5S40.327 9 39.5 9 38 8.327 38 7.5 38.673 6 39.5 6zM35.82.981c.416.683.627 1.685.627 2.98 0 1.884-.526 4.105-1.562 6.602-1.04 2.507-2.472 5.025-4.254 7.485l-.05.07.014.083c.12.708.315 1.204.6 1.519.292.324.679.489 1.15.489.694 0 1.314-.205 1.84-.61.357-.274.787-.689 1.278-1.235l.049-.054.003-.074a20.34 20.34 0 0 1 .264-2.396c.18-1.121.416-2.184.7-3.158.13-.475.301-.798.506-.964.202-.163.546-.246 1.023-.246.998 0 1.018.432 1.019.61v.01c0 .388-.151 1.318-.45 2.767-.388 1.804-.577 2.998-.577 3.648 0 .521.069.915.212 1.203.16.326.445.499.823.499.342 0 .738-.216 1.21-.66.311-.29.703-.71 1.167-1.25l.047-.055.002-.073c.037-1.91.33-3.756.87-5.485.129-.421.339-.73.624-.92.292-.196.717-.294 1.265-.294.365 0 .51.057.564.09.064.041.097.138.097.289 0 .165-.061.591-.352 1.69a37.78 37.78 0 0 0-.385 1.707c-.097.491-.178 1.1-.242 1.812 0 0 .989-4.303 4.33-5.355a3.184 3.184 0 0 1 1.406-.23c.083.004.162.01.236.022l.025.003c.665.111.98.545.98 1.343 0 .611-.176 1.745-.522 3.37-.308 1.43-.458 2.355-.458 2.826 0 1.018.559 1.17.892 1.17.373 0 .787-.211 1.267-.644.152-.137.323-.305.511-.502l.007-.006.005-.008c.815-1.028 1.443-1.89 1.866-2.564.276-.477.6-1.113.968-1.897a64.09 64.09 0 0 0 1.079-2.44c.27-.634.827-.942 1.704-.942.517 0 .747.056.85.103.128.059.146.132.146.203 0 .043-.012.152-.087.4-.06.197-.143.396-.248.594-.302.611-.454 1.138-.454 1.572 0 .277.094.58.278.9.172.299.44.674.794 1.115.498.661.883 1.236 1.14 1.701.245.444.369.936.369 1.463 0 .152-.016.373-.047.655l-.036.33.306-.12c.821-.322 1.747-1.141 2.83-2.506.15-.175.312-.263.49-.263.14 0 .239.06.322.196.099.16.149.392.149.691 0 .564-.138 1.027-.411 1.376-.773.97-1.519 1.64-2.214 1.99-.696.348-1.573.54-2.606.571l-.07.002-.053.046c-.598.514-1.318.775-2.141.775-.775 0-1.37-.179-1.769-.531-.396-.35-.589-.728-.589-1.155 0-.367.13-.677.396-.947.263-.266.665-.4 1.197-.4.196 0 .431.02.701.058.287.042.496.07.64.086l.23.025-.01-.234a3.369 3.369 0 0 0-.292-1.261 6.199 6.199 0 0 0-.655-1.114c-.257-.35-.502-.66-.727-.92l-.19-.221-.136.26c-.485.936-.973 1.724-1.45 2.341-.076.099-.155.196-.234.293l-.04.05-.01.018c-.05.095-.11.183-.175.261-.674.841-1.404 1.537-2.173 2.071-.75.523-1.617.788-2.575.788-.76 0-1.313-.212-1.69-.646-.38-.436-.572-1.087-.572-1.936 0-.438.111-1.239.33-2.382.212-1.039.315-1.74.315-2.144 0-.546-.353-.589-.462-.589-.286 0-.606.277-1.035.897-.38.549-.772 1.28-1.166 2.176a17.091 17.091 0 0 0-.955 2.84c-.168.725-.358 1.213-.566 1.453-.19.22-.506.33-.937.33-.52 0-.877-.274-1.093-.839a3.872 3.872 0 0 1-.164-.58l-.074-.348-.257.242c-1.075 1.012-2.1 1.526-3.048 1.526-.972 0-1.656-.334-2.09-1.02a3.636 3.636 0 0 1-.295-.58l-.109-.267-.21.196c-.354.33-.724.627-1.098.882-.767.523-1.65.789-2.625.789-1.335 0-2.297-.599-2.942-1.83a6.874 6.874 0 0 1-.192-.4l-.124-.278-.204.225a9.757 9.757 0 0 1-1.703 1.494c-.767.523-1.65.789-2.625.789-1.334 0-2.297-.599-2.942-1.83-.404-.77-.688-1.697-.844-2.754l-.032-.215-.21.048c-.651.15-1.349.243-2.073.273l-.152.007-.033.15c-.293 1.308-.875 2.368-1.732 3.15-.85.777-1.826 1.17-2.901 1.17-.911 0-1.697-.224-2.337-.666-.45-.31-.83-.702-1.132-1.163l-.126-.192-.17.152a7.487 7.487 0 0 1-1.686 1.127c-1.011.493-2 .743-2.936.743-1.498 0-2.677-.432-3.502-1.283C.42 20.333 0 19.187 0 17.78c0-1.268.25-2.393.742-3.343.491-.948 1.135-1.688 1.915-2.199.776-.508 1.6-.766 2.449-.766.814 0 1.452.243 1.897.723.454.49.675 1.106.675 1.883 0 .635-.138 1.177-.41 1.61-.259.409-.583.608-.992.608-.256 0-.46-.059-.606-.175-.135-.107-.198-.249-.198-.446 0-.099.014-.214.043-.343.03-.138.053-.239.069-.303.084-.259.127-.506.127-.734 0-.26-.07-.47-.209-.62-.143-.156-.34-.235-.588-.235-.42 0-.814.188-1.17.557-.337.35-.61.828-.81 1.419a6.013 6.013 0 0 0-.298 1.929c0 1.373.454 3.009 2.613 3.009.686 0 1.43-.233 2.214-.693.45-.263.904-.612 1.352-1.036l.076-.071-.015-.104a6.37 6.37 0 0 1-.059-.863c0-1.19.226-2.264.673-3.191.444-.922 1.063-1.653 1.842-2.17a4.6 4.6 0 0 1 2.59-.778c1.146 0 2.08.404 2.778 1.202.71.81 1.131 1.827 1.254 3.022l.02.192.19-.012c.525-.034 1.13-.125 1.8-.27l.155-.034.003-.16c.026-1.866.277-4.003.746-6.353.495-2.485 1.236-4.648 2.201-6.429C24.007.876 25.126 0 26.395 0c.697 0 1.232.321 1.635.981.416.683.627 1.685.627 2.98 0 1.884-.525 4.105-1.561 6.602-1.04 2.507-2.472 5.025-4.254 7.485l-.05.07.014.083c.119.708.315 1.204.599 1.519.292.324.68.489 1.15.489a2.95 2.95 0 0 0 1.841-.61c.433-.333.973-.873 1.605-1.607l.06-.07-.013-.091a14.953 14.953 0 0 1-.14-2.108c0-1.946.252-4.196.749-6.688.495-2.485 1.236-4.648 2.202-6.429C31.796.876 32.915 0 34.185 0c.696 0 1.231.321 1.634.981zM15.98 17.268c-.126.863-.382 1.538-.76 2.005-.39.482-.861.727-1.399.727-.5 0-.936-.276-1.296-.819-.348-.524-.525-1.28-.525-2.25 0-1.22.213-2.183.634-2.866.436-.707.996-1.065 1.664-1.065h.34l-.041.25a4.662 4.662 0 0 0-.065.77c0 .607.12 1.189.355 1.73A3.22 3.22 0 0 0 15.9 17.06l.1.076-.02.133zm7.033-2.033c.03-1.873.22-3.855.56-5.891.34-2.036.742-3.767 1.193-5.145.497-1.52.925-2.199 1.39-2.199C27 2 27 3.576 27 4.093c0 1.622-.332 3.437-.987 5.394a33.351 33.351 0 0 1-2.641 5.859L23 16l.013-.765zm8 0c.03-1.873.219-3.855.56-5.891.34-2.036.742-3.767 1.192-5.145.498-1.52.926-2.199 1.391-2.199C35 2 35 3.576 35 4.093c0 1.622-.332 3.437-.987 5.394a33.364 33.364 0 0 1-2.641 5.859L31 16l.013-.765z" fill="#ECE0CE" fill-rule="evenodd"/>
</svg>
