<svg width="30" height="30" xmlns="http://www.w3.org/2000/svg">
    <g fill="none" fill-rule="evenodd">
        <path d="M28.415 8.967c-.322-1.168-1.271-2.088-2.476-2.4C23.756 6 15 6 15 6s-8.755 0-10.938.567c-1.205.312-2.154 1.232-2.476 2.4C1 11.084 1 15.5 1 15.5s0 4.416.585 6.533c.322 1.168 1.27 2.088 2.476 2.4C6.244 25 15 25 15 25s8.756 0 10.94-.567c1.204-.312 2.153-1.232 2.475-2.4C29 19.916 29 15.5 29 15.5s0-4.416-.585-6.533" stroke="#ECE0CE"/>
        <path d="m12.698 11.8 6.38 2.744a.5.5 0 0 1 .05.894l-6.38 3.636A.5.5 0 0 1 12 18.64v-6.38a.5.5 0 0 1 .698-.46z" fill="#ECE0CE"/>
    </g>
</svg>
