<svg width="30" height="30" xmlns="http://www.w3.org/2000/svg">
    <g fill-rule="nonzero" fill="none">
        <path d="M19.929 4.5c1.536 0 2.928.625 3.937 1.634A5.554 5.554 0 0 1 25.5 10.07v9.858a5.554 5.554 0 0 1-1.634 3.937A5.554 5.554 0 0 1 19.93 25.5H10.07a5.554 5.554 0 0 1-3.937-1.634A5.554 5.554 0 0 1 4.5 19.93V10.07c0-1.536.625-2.928 1.634-3.937A5.554 5.554 0 0 1 10.07 4.5z" stroke="#ECE0CE"/>
        <path d="M15 10.5c-2.757 0-5 2.243-5 5s2.243 5 5 5 5-2.243 5-5-2.243-5-5-5z" stroke="#ECE0CE" stroke-width=".8"/>
        <path d="M21.25 8A1.255 1.255 0 0 0 20 9.25c0 .329.134.651.367.884.232.232.555.366.883.366.33 0 .651-.134.884-.366a1.26 1.26 0 0 0 .366-.884c0-.33-.133-.652-.366-.884A1.255 1.255 0 0 0 21.25 8z" fill="#ECE0CE"/>
    </g>
</svg>
