<svg width="30" height="30" xmlns="http://www.w3.org/2000/svg">
    <g fill="none" fill-rule="evenodd">
        <path d="M16.5 3.463c3.338 0 6.363 1.066 8.552 2.798 2.144 1.698 3.485 4.04 3.485 6.635 0 2.595-1.34 4.937-3.486 6.635-2.188 1.732-5.213 2.798-8.551 2.798-.77 0-1.523-.057-2.252-.165-1.386.795-3.508 2.24-4.546 2.945-.035-1.145.473-2.92.675-3.674-1.981-1.387-3.426-2.578-4.424-3.995-.947-1.345-1.49-2.894-1.49-4.544 0-2.595 1.34-4.937 3.485-6.635 2.189-1.732 5.214-2.798 8.552-2.798z" stroke="#ECE0CE" stroke-width=".926"/>
        <g fill="#ECE0CE">
            <path d="M11.745 11.077h-3.2a.544.544 0 1 0 0 1.088h1.04V16a.534.534 0 0 0 .53.53h.117a.531.531 0 0 0 .53-.53v-3.835h.983a.544.544 0 1 0 0-1.088M19.437 15.507h-1.488V11.59a.59.59 0 1 0-1.181 0v4.22c0 .034.004.064.009.095a.494.494 0 0 0 .485.589h2.175a.494.494 0 1 0 0-.988M24.193 15.686l-1.659-2.178 1.499-1.5a.52.52 0 1 0-.735-.734l-1.856 1.855v-1.538a.59.59 0 1 0-1.18 0v4.35a.59.59 0 1 0 1.18 0V14.6l.338-.337 1.569 2.059a.527.527 0 1 0 .844-.635M13.22 14.415l.733-2.093.024.002.733 2.091h-1.49zm3.106 1.413-1.595-4.364-.006-.004c-.102-.266-.396-.46-.747-.46-.39 0-.712.238-.776.55a.722.722 0 0 0-.03.071l-1.569 4.207a.53.53 0 1 0 .999.35l.271-.774h2.183l.271.775a.53.53 0 0 0 .999-.351z"/>
        </g>
    </g>
</svg>
