<svg width="20" height="20" xmlns="http://www.w3.org/2000/svg">
    <g fill="none" fill-rule="evenodd">
        <path d="M0 0h20v20H0z"/>
        <path d="M10.084 3.565c-2.644.405-4.753 2.79-5.047 5.696-.394 3.92 2.398 7.239 5.9 7.239 1.033 0 2.003-.29 2.847-.8.4-.24.204-.912-.249-.853a4.125 4.125 0 0 1-.527.034c-2.628 0-4.725-2.49-4.43-5.435.218-2.164 1.778-3.944 3.743-4.27a4.13 4.13 0 0 1 1.217-.022c.45.058.641-.616.244-.856a5.502 5.502 0 0 0-2.847-.798c-.28 0-.564.021-.851.065z" stroke="#000"/>
    </g>
</svg>
