<svg width="20" height="20" xmlns="http://www.w3.org/2000/svg">
    <g fill="none" fill-rule="evenodd">
        <path d="M0 0h20v20H0z"/>
        <path d="M9.123 4.166 9.034 6.87A.17.17 0 0 1 8.76 7L6.63 5.332c-.141-.111-.336.046-.257.209L7.55 7.978a.17.17 0 0 1-.185.242l-2.658-.485c-.177-.032-.276.198-.13.305l2.17 1.61a.17.17 0 0 1-.05.3l-2.578.809c-.171.054-.153.303.025.331l2.67.414a.17.17 0 0 1 .095.289L5 13.709c-.127.129.005.34.176.282l2.556-.877a.171.171 0 0 1 .218.212l-.8 2.585c-.054.173.162.299.285.167l1.857-1.965a.17.17 0 0 1 .292.086l.49 2.661c.032.178.282.19.33.016l.733-2.606a.17.17 0 0 1 .298-.059l1.67 2.128c.111.142.337.036.3-.14l-.561-2.648a.171.171 0 0 1 .237-.191l2.466 1.108c.164.074.314-.126.2-.265l-1.726-2.084a.17.17 0 0 1 .121-.278l2.697-.167c.18-.012.222-.258.055-.327l-2.493-1.043a.171.171 0 0 1-.023-.303l2.31-1.403c.154-.094.076-.332-.103-.316l-2.691.238a.171.171 0 0 1-.162-.258l1.395-2.318c.094-.154-.087-.328-.238-.232l-2.272 1.465a.17.17 0 0 1-.262-.153l.16-2.702c.01-.181-.23-.252-.319-.095l-1.334 2.355a.17.17 0 0 1-.302-.015L9.45 4.101A.166.166 0 0 0 9.295 4a.169.169 0 0 0-.172.166z" fill="#000"/>
    </g>
</svg>
