<?xml version="1.0" encoding="UTF-8"?>
<svg width="65px" height="23px" viewBox="0 0 65 23" version="1.1" xmlns="http://www.w3.org/2000/svg" xmlns:xlink="http://www.w3.org/1999/xlink">
    <title>collins_logo_b</title>
    <g id="Page-1" stroke="none" stroke-width="1" fill="none" fill-rule="evenodd">
        <g id="P_03_menu_login" transform="translate(-218.000000, -33.000000)" fill="#000000">
            <g id="collins_logo_b" transform="translate(218.000000, 33.000000)">
                <path d="M39.5,6 C40.3271429,6 41,6.67285714 41,7.5 C41,8.32714286 40.3271429,9 39.5,9 C38.6730286,9 38,8.32714286 38,7.5 C38,6.67285714 38.6730286,6 39.5,6 L39.5,6 Z M34.1846408,0 C34.8812662,0 35.4160424,0.321067568 35.819364,0.981385135 C36.2356243,1.66392568 36.446702,2.66644595 36.446702,3.96105068 C36.446702,5.84534122 35.9212662,8.06647297 34.8850942,10.5626723 C33.8447114,13.0695169 32.4134099,15.5880169 30.6310777,18.0482399 L30.5811602,18.1172399 L30.5953239,18.2013919 C30.7141461,18.9086419 30.9100648,19.4052399 31.1943345,19.719625 C31.4867197,20.0440338 31.8738104,20.2086858 32.344735,20.2086858 C33.0392933,20.2086858 33.6585925,20.0035507 34.1854829,19.5989527 C34.5418728,19.3254392 34.9716078,18.9099628 35.4628975,18.3643345 L35.5118963,18.3097872 L35.5146525,18.2359696 C35.5394582,17.5800811 35.6282686,16.7741486 35.7787868,15.8403953 C35.9592403,14.7186014 36.1945112,13.6560946 36.4780919,12.6824797 C36.6099293,12.2074831 36.7802768,11.8838514 36.985,11.7180338 C37.1865842,11.5545473 37.5306478,11.4717939 38.0076207,11.4717939 C39.0055124,11.4717939 39.02649,11.9042872 39.0269494,12.0818378 L39.0269494,12.0929493 C39.0269494,12.4796757 38.8755889,13.4103209 38.5771555,14.8592432 C38.1886867,16.6634223 37.9995819,17.8570135 37.9995819,18.5065304 C37.9995819,19.0280709 38.0690224,19.4217905 38.211808,19.710223 C38.3724323,20.0361081 38.6570848,20.2086858 39.0349117,20.2086858 C39.3769847,20.2086858 39.7729564,19.9932162 40.2454888,19.5499223 C40.5560954,19.2589257 40.9484688,18.8380878 41.4115077,18.2996081 L41.4592049,18.2444392 L41.460583,18.1711655 C41.4981743,16.2603784 41.7910954,14.4149392 42.3309246,12.6862095 C42.4599293,12.2649831 42.6700118,11.9554932 42.9553534,11.765277 C43.2472026,11.5704764 43.6724971,11.4717939 44.2197527,11.4717939 C44.5854829,11.4717939 44.7300294,11.5285169 44.7836985,11.5623176 C44.848086,11.6031115 44.8810071,11.700473 44.8810071,11.8509831 C44.8810071,12.0155574 44.8199882,12.4424561 44.5292874,13.5413277 C44.3691991,14.1894459 44.2398881,14.7625034 44.1440342,15.2480676 C44.0471084,15.7392264 43.9656478,16.3488818 43.9020259,17.0603277 C43.9020259,17.0603277 44.89096,12.7573851 48.2317609,11.7045912 C48.7764134,11.4862466 49.2522379,11.4518243 49.6384099,11.4752905 C49.7212485,11.4787095 49.8001826,11.4857804 49.8743698,11.4970473 C49.8825618,11.4980574 49.8907538,11.4989899 49.8987927,11.5 L49.8977208,11.5012432 C50.5637986,11.6114257 50.8784629,12.0446959 50.8784629,12.8431689 C50.8784629,13.4543784 50.703139,14.5881385 50.3573145,16.2131351 C50.0488516,17.6430203 49.8987927,18.567527 49.8987927,19.0388716 C49.8987927,20.0566993 50.4576855,20.2086858 50.7908009,20.2086858 C51.1635748,20.2086858 51.5781508,19.9980338 52.0584158,19.5646081 C52.2095465,19.4282399 52.3813486,19.2595473 52.5692285,19.0631149 L52.575583,19.0565101 L52.5814782,19.0491284 C53.3963899,18.0208108 54.0241873,17.1580777 54.4471849,16.4850169 C54.7232627,16.0081554 55.0475736,15.3717703 55.4149882,14.5875169 C55.7803357,13.8068378 56.1432332,12.9859088 56.4937279,12.1472635 C56.7633746,11.5140642 57.321119,11.2055068 58.1979682,11.2055068 C58.7146761,11.2055068 58.9452768,11.2615304 59.047715,11.3086182 C59.1758775,11.36775 59.193563,11.4414122 59.193563,11.5120439 C59.193563,11.5547804 59.182232,11.6635642 59.1067432,11.9127568 C59.0470259,12.1088784 58.9635748,12.3084189 58.8588398,12.5056284 C58.556808,13.1172264 58.4050648,13.6444392 58.4050648,14.0775541 C58.4050648,14.3546419 58.4985453,14.6574493 58.6830565,14.9778176 C58.8551649,15.2766622 59.1223616,15.6518108 59.4772203,16.0926182 C59.9747114,16.7543345 60.3595819,17.3287128 60.6168257,17.794152 C60.8615135,18.2376791 60.9856949,18.7297703 60.9856949,19.25675 C60.9856949,19.409125 60.9699234,19.6295676 60.9389929,19.91225 L60.9028563,20.2426419 L61.2088693,20.1225135 C62.0300589,19.800125 62.9562132,18.9805169 64.0399293,17.6164459 C64.1889164,17.4406824 64.3506125,17.3528007 64.5299176,17.3528007 C64.6685689,17.3528007 64.7675618,17.4133311 64.851013,17.5485338 C64.9498528,17.7086791 65,17.9413986 65,18.2402432 C65,18.8037432 64.8615783,19.2665405 64.5889458,19.6156588 C63.8156066,20.5868649 63.0702886,21.2565845 62.3748881,21.6051588 C61.6789517,21.9535777 60.8021025,22.146125 59.7690695,22.1772061 L59.6993227,22.1793041 L59.6461131,22.2250709 C59.0484806,22.7393851 58.3280448,23 57.5050177,23 C56.7299941,23 56.1348881,22.8212838 55.7363133,22.4688243 C55.3400353,22.1186959 55.1474853,21.7409831 55.1474853,21.3139291 C55.1474853,20.9466284 55.2768728,20.6370608 55.5431508,20.3674324 C55.8055241,20.1014561 56.2084629,19.9667196 56.7404064,19.9667196 C56.9355595,19.9667196 57.1712898,19.9864561 57.4411661,20.025152 C57.7275029,20.0668007 57.9368198,20.0946959 58.0808304,20.110625 L58.3102827,20.1361115 L58.3013251,19.9023818 C58.2844052,19.4585439 58.1859482,19.0339764 58.0087102,18.6405676 C57.8368316,18.2594358 57.6166431,17.8848311 57.3541932,17.5270878 C57.0967197,17.1768818 56.8521849,16.8674696 56.6274028,16.6070878 L56.4363074,16.3857128 L56.3012544,16.6460169 C55.8157067,17.5821014 55.3278622,18.3698514 54.851119,18.987277 C54.7748645,19.0860372 54.6960836,19.1829324 54.6173793,19.2799054 L54.5768021,19.3300236 L54.5674617,19.3475845 C54.5170082,19.4434696 54.4579034,19.5313514 54.3916019,19.6089764 C53.7176384,20.4503412 52.9880919,21.1455473 52.2194229,21.6801419 C51.4685925,22.2026149 50.6020024,22.4675034 49.6439988,22.4675034 C48.884364,22.4675034 48.3312898,22.2563851 47.9534629,21.8219493 C47.574258,21.3864257 47.381861,20.7351993 47.381861,19.8859865 C47.381861,19.4482095 47.4931802,18.6470169 47.7126796,17.5041655 C47.9240636,16.4654358 48.0270377,15.7633919 48.0270377,15.3602703 C48.0270377,14.8137095 47.6735571,14.7713615 47.5651472,14.7713615 C47.2785041,14.7713615 46.9591696,15.0478277 46.5298174,15.6678953 C46.1498469,16.2167872 45.7577032,16.9487466 45.3640283,17.8435709 C44.9713486,18.7362196 44.6498704,19.6921959 44.4087809,20.684848 C44.2412662,21.4091149 44.0512426,21.8969324 43.8432273,22.1369561 C43.652821,22.3562331 43.3373145,22.4675034 42.9055889,22.4675034 C42.386278,22.4675034 42.0288163,22.1930574 41.8129152,21.6282365 C41.7507479,21.4663041 41.6956243,21.2709595 41.648616,21.0480304 L41.575424,20.7003108 L41.3184099,20.9423547 C40.2431154,21.9543547 39.217662,22.4675034 38.2703004,22.4675034 C37.2981331,22.4675034 36.6143698,22.1337703 36.1799647,21.4471892 C36.0684923,21.2711926 35.9691932,21.0765473 35.8848233,20.8683818 L35.7761837,20.6005405 L35.5657185,20.7966622 C35.2117786,21.1266655 34.8423734,21.4236453 34.4676855,21.6790541 C33.7006243,22.2022264 32.8174205,22.4675034 31.8429564,22.4675034 C30.508351,22.4675034 29.5459069,21.8692703 28.9005771,20.6384595 C28.8381802,20.5194966 28.775477,20.388723 28.7087161,20.2386791 L28.5852238,19.9601926 L28.3808068,20.1845203 C27.8480212,20.7691554 27.2751943,21.272125 26.6783274,21.6790541 C25.9111896,22.2022264 25.0280624,22.4675034 24.0534452,22.4675034 C22.7189929,22.4675034 21.7564723,21.8692703 21.1112956,20.6384595 C20.7068257,19.8680372 20.4226325,18.9413547 20.2665253,17.8838986 L20.2348292,17.6687399 L20.0253592,17.7171486 C19.3735984,17.8678142 18.6761307,17.9598142 17.9523263,17.9903514 L17.8000471,17.996723 L17.7665135,18.1473108 C17.4742815,19.4552804 16.891808,20.5150676 16.0352473,21.2973007 C15.1848881,22.0737838 14.2087397,22.4675034 13.1339046,22.4675034 C12.2229093,22.4675034 11.4367079,22.2433311 10.7971201,21.8008919 C10.3471731,21.4901588 9.96643698,21.0990034 9.66517079,20.6381486 L9.53945819,20.4459122 L9.36811543,20.5977432 C8.85814488,21.0495068 8.29136631,21.4288514 7.68339812,21.7250541 C6.67180212,22.2177669 5.68393993,22.4675034 4.74699058,22.4675034 C3.24862191,22.4675034 2.07035336,22.0359426 1.24518257,21.1847872 C0.418939929,20.332777 0,19.1874392 0,17.7803986 C0,16.5122128 0.24958775,15.3873885 0.74171967,14.437473 C1.23308598,13.4890338 1.87742049,12.7489932 2.65688457,12.2380203 C3.43267373,11.7296115 4.25654299,11.4717939 5.10552415,11.4717939 C5.91989988,11.4717939 6.55841578,11.7150034 7.00330978,12.1946622 C7.45731449,12.6849662 7.67803887,13.3008378 7.67803887,14.0775541 C7.67803887,14.7129291 7.53984688,15.2545169 7.26729093,15.6873986 C7.00928151,16.0969696 6.68512367,16.2960439 6.27636631,16.2960439 C6.02034747,16.2960439 5.81646643,16.237223 5.67031213,16.1212128 C5.53487633,16.0139054 5.4718669,15.872098 5.4718669,15.6748885 C5.4718669,15.5760507 5.48633687,15.4605845 5.51481743,15.3317534 C5.54498233,15.1937534 5.56787397,15.0932061 5.5835689,15.0291791 C5.66793875,14.7701959 5.71081272,14.5232568 5.71081272,14.2953547 C5.71081272,14.0343514 5.64075972,13.8254088 5.50249117,13.6741993 C5.35924617,13.5187162 5.16156655,13.4402365 4.91435218,13.4402365 C4.49411072,13.4402365 4.10043581,13.6275777 3.74442874,13.9971318 C3.40656655,14.3474932 3.13393404,14.8249764 2.93388104,15.4158277 C2.7364311,15.9992196 2.63636631,16.6482703 2.63636631,17.3447973 C2.63636631,18.7175709 3.08952886,20.3539122 5.24876914,20.3539122 C5.93475265,20.3539122 6.67984099,20.1208041 7.46328622,19.6611149 C7.91254417,19.3977804 8.36746761,19.0491284 8.81527091,18.625027 L8.89068316,18.5535405 L8.87644287,18.4498851 C8.83701413,18.1625405 8.81695524,17.8722432 8.81695524,17.5868412 C8.81695524,16.3968243 9.04334511,15.3231284 9.48977032,14.395902 C9.9335159,13.4736486 10.5532744,12.7433986 11.3317432,12.2251216 C12.1075324,11.7092534 12.9792521,11.4475507 13.9225559,11.4475507 C15.06798,11.4475507 16.0027091,11.8521486 16.7004829,12.6502331 C17.4093581,13.46075 17.8309776,14.4773345 17.9537809,15.6715473 L17.9736867,15.86425 L18.1645524,15.851973 C18.6887633,15.8180169 19.2941284,15.7271824 19.9641107,15.5819561 L20.1192226,15.5483108 L20.121596,15.3876216 C20.1482391,13.521902 20.3992049,11.3845338 20.8676031,9.03503716 C21.3630271,6.55010473 22.1036749,4.38701689 23.0691814,2.60607095 C24.0067432,0.876797297 25.1257538,0 26.3952827,0 C27.0919081,0 27.6266078,0.321067568 28.0299293,0.981385135 C28.4461896,1.66392568 28.6572674,2.66644595 28.6572674,3.96105068 C28.6572674,5.84534122 28.1319081,8.06647297 27.0958127,10.5626723 C26.0552768,13.0695946 24.6239753,15.5880946 22.8417197,18.0482399 L22.7917256,18.1172399 L22.8058893,18.2013919 C22.924788,18.9086419 23.1207067,19.4052399 23.4048233,19.719625 C23.6972085,20.0440338 24.0844523,20.2086858 24.5553769,20.2086858 C25.2499352,20.2086858 25.8691578,20.0035507 26.3960483,19.5989527 C26.8291519,19.2663851 27.3690577,18.7258074 28.0007597,17.9921385 L28.0609364,17.9222061 L28.0479211,17.8305946 C27.9552061,17.1837973 27.9082744,16.4747601 27.9082744,15.7232973 C27.9082744,13.7772331 28.1602356,11.5270405 28.6569611,9.03503716 C29.1523852,6.55010473 29.8931095,4.38701689 30.858616,2.60607095 C31.7961779,0.876797297 32.915265,0 34.1846408,0 L34.1846408,0 Z M15.9804286,17.2677209 C15.8538571,18.1311628 15.5980714,18.8057674 15.2199286,19.2725698 C14.8292143,19.7551628 14.3587143,20 13.8215,20 C13.3216429,20 12.8854286,19.7243953 12.5247857,19.1810814 C12.1765714,18.6574651 12,17.9001628 12,16.930093 C12,15.7115233 12.2134286,14.7475581 12.6341429,14.0653837 C13.0701429,13.3583837 13.6297857,13 14.2976429,13 L14.6385714,13 L14.5966429,13.2497209 C14.5536429,13.5054651 14.5319286,13.7647907 14.5319286,14.0204535 C14.5319286,14.6266047 14.6513571,15.2085814 14.887,15.7501047 C15.1205714,16.287314 15.4612857,16.7277442 15.9,17.0590233 L16,17.1347209 L15.9804286,17.2677209 Z M23.0126545,15.2345085 C23.0434909,13.3623842 23.2320727,11.3804746 23.5730182,9.34375141 C23.9136727,7.30766102 24.3149091,5.57672316 24.7655273,4.19879096 C25.2626182,2.67816949 25.6914909,2 26.1561455,2 C27,2 27,3.57567232 27,4.09327684 C27,5.71506215 26.6680727,7.52976271 26.0131636,9.48715254 C25.3618182,11.4346554 24.4731636,13.4057288 23.3716364,15.3455593 L23,16 L23.0126545,15.2345085 Z M31.0125818,15.2345085 C31.0433455,13.3623842 31.232,11.3804746 31.5730182,9.34375141 C31.9136,7.30766102 32.3148364,5.57672316 32.7654545,4.19879096 C33.2626182,2.67816949 33.6914909,2 34.1560727,2 C35,2 35,3.57567232 35,4.09327684 C35,5.71506215 34.6679273,7.52976271 34.0130909,9.48715254 C33.3617455,11.4345763 32.4730182,13.4055706 31.3715636,15.3455593 L31,16 L31.0125818,15.2345085 Z" id="Fill-1"></path>
            </g>
        </g>
    </g>
</svg>