<svg width="24" height="24" viewBox="0 0 24 24" xmlns="http://www.w3.org/2000/svg">
    <g fill="none" fill-rule="evenodd">
        <path d="M22.732 7.173a2.764 2.764 0 0 0-1.98-1.92C19.005 4.8 12 4.8 12 4.8s-7.005 0-8.752.454a2.764 2.764 0 0 0-1.98 1.92C.8 8.866.8 12.4.8 12.4s0 3.533.468 5.227a2.764 2.764 0 0 0 1.98 1.92C4.995 20 12 20 12 20s7.005 0 8.752-.454a2.764 2.764 0 0 0 1.98-1.92c.468-1.693.468-5.226.468-5.226s0-3.533-.468-5.227" fill="#C0A691"/>
        <path d="m10.158 9.44 5.104 2.195a.4.4 0 0 1 .04.715l-5.104 2.91a.4.4 0 0 1-.598-.348V9.807a.4.4 0 0 1 .558-.367z" fill="#FFFFF5"/>
    </g>
</svg>
