<svg width="24" height="24" viewBox="0 0 24 24" xmlns="http://www.w3.org/2000/svg">
    <g fill-rule="nonzero" fill="none">
        <path d="M15.943 3.2H8.057A4.862 4.862 0 0 0 3.2 8.057v7.886A4.862 4.862 0 0 0 8.057 20.8h7.886a4.863 4.863 0 0 0 4.857-4.857V8.057A4.863 4.863 0 0 0 15.943 3.2z" fill="#C0A691"/>
        <path d="M12 8.4c-2.206 0-4 1.794-4 4s1.794 4 4 4 4-1.794 4-4-1.794-4-4-4z" stroke="#FFFFF5" stroke-width=".64"/>
        <path d="M17 6.4a1.004 1.004 0 0 0-1 1c0 .263.107.52.294.707.185.186.443.293.706.293.264 0 .52-.107.707-.293a1.004 1.004 0 0 0 0-1.415A1.004 1.004 0 0 0 17 6.4z" fill="#FFFFF5"/>
    </g>
</svg>
