<svg width="24" height="24" viewBox="0 0 24 24" xmlns="http://www.w3.org/2000/svg">
    <g fill="none" fill-rule="evenodd">
        <path d="M2.4 10.717c0 2.846 1.897 5.34 4.744 6.735-.21.782-.757 2.834-.867 3.272-.136.545.2.538.418.39.172-.114 2.74-1.862 3.849-2.617.601.09 1.222.137 1.856.137 5.523 0 10-3.545 10-7.917 0-4.373-4.477-7.917-10-7.917s-10 3.544-10 7.917z" fill="#C0A691"/>
        <g fill="#FFFFF5">
            <path d="M8.596 9.261h-2.56a.436.436 0 1 0 0 .871h.832V13.2a.427.427 0 0 0 .425.425h.093a.425.425 0 0 0 .424-.425v-3.068h.786a.436.436 0 1 0 0-.87M14.75 12.805h-1.191V9.673a.472.472 0 1 0-.945 0v3.376c0 .027.003.051.008.076a.395.395 0 0 0 .388.471h1.74a.395.395 0 1 0 0-.79M18.554 12.95l-1.327-1.744 1.2-1.199a.416.416 0 1 0-.589-.588l-1.484 1.484v-1.23a.472.472 0 1 0-.945 0v3.48a.472.472 0 1 0 .945 0V12.08l.27-.27 1.255 1.648a.422.422 0 1 0 .675-.508M9.776 11.932l.586-1.674.02.001.586 1.673H9.776zm2.484 1.13-1.276-3.49-.004-.004c-.082-.213-.317-.368-.598-.368-.311 0-.569.19-.62.44a.577.577 0 0 0-.024.057l-1.255 3.365a.423.423 0 1 0 .798.281l.217-.62h1.747l.217.62a.423.423 0 0 0 .798-.28z"/>
        </g>
    </g>
</svg>
